<svg xmlns="http://www.w3.org/2000/svg" width="512" height="512" viewBox="0 0 512 512" version="1.1"><path d="M 360.272 118 C 360.272 120.475, 360.467 121.487, 360.706 120.250 C 360.944 119.013, 360.944 116.987, 360.706 115.750 C 360.467 114.513, 360.272 115.525, 360.272 118 M 360.310 142.500 C 360.315 145.800, 360.502 147.029, 360.725 145.232 C 360.947 143.435, 360.943 140.735, 360.715 139.232 C 360.486 137.729, 360.304 139.200, 360.310 142.500 M 430.286 146.500 C 430.294 149.250, 430.488 150.256, 430.718 148.736 C 430.947 147.216, 430.941 144.966, 430.704 143.736 C 430.467 142.506, 430.279 143.750, 430.286 146.500 M 338 191.500 C 338 212.858, 338.246 230.087, 338.547 229.787 C 339.215 229.118, 339.147 153.814, 338.477 153.144 C 338.215 152.881, 338 170.142, 338 191.500 M 318.432 184 C 318.432 197.475, 318.574 202.988, 318.747 196.250 C 318.920 189.512, 318.920 178.488, 318.747 171.750 C 318.574 165.012, 318.432 170.525, 318.432 184 M 430.310 178.500 C 430.315 181.800, 430.502 183.029, 430.725 181.232 C 430.947 179.435, 430.943 176.735, 430.715 175.232 C 430.486 173.729, 430.304 175.200, 430.310 178.500 M 208.286 230.500 C 208.294 233.250, 208.488 234.256, 208.718 232.736 C 208.947 231.216, 208.941 228.966, 208.704 227.736 C 208.467 226.506, 208.279 227.750, 208.286 230.500 M 121.252 265.500 C 121.263 267.700, 121.468 268.482, 121.707 267.238 C 121.946 265.994, 121.937 264.194, 121.687 263.238 C 121.437 262.282, 121.241 263.300, 121.252 265.500 M 456.187 271.744 C 402.544 305.552, 358.351 370.496, 344.040 436.549 C 339.860 455.841, 337.345 485, 339.860 485 C 340.333 485, 345.395 481.879, 351.110 478.064 C 369.797 465.590, 381.807 454.580, 406.633 427.169 C 410.176 423.257, 411.318 422.604, 414.633 422.595 C 416.760 422.590, 419.217 422.924, 420.093 423.339 C 421.311 423.916, 422.899 422.338, 426.839 416.639 C 433.436 407.095, 433.602 406.581, 431.096 403.395 C 427.819 399.229, 428.319 394.481, 432.471 390.329 C 435.519 387.281, 436.463 386.898, 440.221 387.179 L 444.500 387.500 448.841 378.736 L 453.183 369.972 450.091 366.451 C 448.391 364.515, 447 361.897, 447 360.633 C 447 359.370, 448.815 353.247, 451.034 347.027 C 455.648 334.094, 460.162 316.813, 462.537 303 C 463.927 294.908, 466.207 267.018, 465.541 266.244 C 465.420 266.103, 461.210 268.578, 456.187 271.744 M 402.477 289.250 L 394.500 297.500 402.750 289.523 C 407.288 285.136, 411 281.424, 411 281.273 C 411 280.544, 409.885 281.588, 402.477 289.250 M 266.552 309.238 C 254.698 350.523, 260.134 400.313, 281.055 442.090 C 287.009 453.979, 298.037 470.559, 305.263 478.486 L 310.721 484.473 312.294 478.986 C 317.783 459.852, 319.627 428.681, 316.535 407.289 C 311.195 370.339, 295.554 334.750, 274.104 310.738 L 268.063 303.975 266.552 309.238 M 342.349 351 C 342.349 355.675, 342.522 357.587, 342.732 355.250 C 342.943 352.913, 342.943 349.087, 342.732 346.750 C 342.522 344.413, 342.349 346.325, 342.349 351" stroke="none" fill="#a0e557" fill-rule="evenodd"/><path d="M 117 34.691 C 107.955 36.205, 94.055 42.764, 87.209 48.749 L 82.918 52.500 87.360 59.070 C 89.802 62.684, 94.766 68.357, 98.389 71.677 C 118.725 90.311, 144.270 90.638, 168.791 72.578 L 175.081 67.944 169.890 60.435 C 156.383 40.896, 136.818 31.373, 117 34.691 M 101.250 102.689 C 102.213 102.941, 103.787 102.941, 104.750 102.689 C 105.713 102.438, 104.925 102.232, 103 102.232 C 101.075 102.232, 100.287 102.438, 101.250 102.689 M 162.423 111.559 C 161.010 119.089, 163.944 134.009, 168.671 143.338 C 175.764 157.335, 193.972 167, 213.250 167 C 220.674 167, 221.002 166.666, 220.983 159.143 C 220.914 132.750, 207.126 114.493, 183.500 109.511 C 179.650 108.699, 173.483 108.027, 169.795 108.017 L 163.091 108 162.423 111.559 M 255.232 126 C 255.232 127.925, 255.438 128.713, 255.689 127.750 C 255.941 126.787, 255.941 125.213, 255.689 124.250 C 255.438 123.287, 255.232 124.075, 255.232 126 M 102 174.980 C 78.462 178.051, 62.216 192.154, 56.522 214.460 C 55.639 217.919, 55 224.789, 55 230.831 L 55 241.241 67.250 240.778 C 81.783 240.228, 89.089 238.081, 99.125 231.414 C 105.465 227.202, 111.821 220.115, 115.311 213.366 C 118.792 206.633, 121 195.784, 121 185.406 L 121 175.272 116.360 174.636 C 111.171 173.925, 109.844 173.956, 102 174.980 M 142 265.290 C 142 292.109, 154.357 310.797, 177.109 318.384 C 185.066 321.038, 198.724 322.650, 204.333 321.597 C 207.540 320.996, 207.826 320.637, 208.218 316.724 C 208.898 309.929, 207.258 295.989, 205.016 289.500 C 197.466 267.651, 177.669 255.071, 150.750 255.017 L 142 255 142 265.290 M 137 315.500 C 138.866 317.425, 140.617 319, 140.892 319 C 141.167 319, 139.866 317.425, 138 315.500 C 136.134 313.575, 134.383 312, 134.108 312 C 133.833 312, 135.134 313.575, 137 315.500 M 124.437 316.250 L 121.500 319.500 124.750 316.563 C 126.537 314.948, 128 313.485, 128 313.313 C 128 312.540, 127.175 313.221, 124.437 316.250 M 61.750 321.723 C 63.538 321.945, 66.463 321.945, 68.250 321.723 C 70.037 321.502, 68.575 321.320, 65 321.320 C 61.425 321.320, 59.962 321.502, 61.750 321.723 M 138.453 396.250 L 134.500 400.500 138.750 396.547 C 142.702 392.871, 143.460 392, 142.703 392 C 142.540 392, 140.627 393.913, 138.453 396.250 M 121 393.313 C 121 393.485, 122.463 394.948, 124.250 396.563 L 127.500 399.500 124.563 396.250 C 121.825 393.221, 121 392.540, 121 393.313" stroke="none" fill="#ffc66c" fill-rule="evenodd"/><path d="M 191.532 83.478 C 187.699 85.435, 184.178 87.422, 183.706 87.894 C 183.231 88.369, 184.917 89.060, 187.498 89.447 C 193.071 90.283, 202.791 93.864, 209.051 97.387 C 220.239 103.684, 231.488 117.030, 236.120 129.500 C 237.345 132.800, 238.775 136.063, 239.296 136.750 C 239.904 137.551, 242.893 138, 247.622 138 L 255 138 255.153 134.750 C 256.165 113.299, 249.222 97.126, 235.116 88.075 C 227.425 83.139, 219.666 80.896, 208.500 80.381 C 198.615 79.925, 198.420 79.961, 191.532 83.478 M 93 103.161 C 81.342 104.702, 72.419 109.540, 63.530 119.141 C 57.773 125.359, 50.359 139.011, 49.345 145.261 C 48.812 148.543, 48.966 148.738, 53.646 150.735 C 85.714 164.416, 113.606 154.444, 127.672 124.270 C 129.525 120.294, 131.307 115.716, 131.631 114.096 C 132.162 111.438, 131.828 110.953, 128.183 109.093 C 118.866 104.340, 103.579 101.763, 93 103.161 M 142 182.912 C 142 209.407, 153.379 228.419, 174.096 236.538 C 181.612 239.483, 192.655 241.243, 201 240.825 L 207.500 240.500 207.803 232.500 C 208.225 221.342, 206.531 212.835, 202.023 203.471 C 193.026 184.786, 175.677 175.063, 151.250 175.017 L 142 175 142 182.912 M 98.076 256.524 C 87.617 258.417, 76.822 263.988, 69.851 271.090 C 59.930 281.197, 55.052 294.732, 55.017 312.250 L 55 321 65.290 321 C 82.586 321, 95.421 316.266, 105.401 306.207 C 115.588 295.938, 119.860 285.243, 120.700 267.901 L 121.262 256.302 118.006 255.651 C 113.260 254.702, 106.510 254.998, 98.076 256.524 M 123.729 317.950 C 100.873 342.246, 100.650 370.361, 123.123 394.425 C 127.014 398.591, 130.757 402, 131.440 402 C 133.051 402, 143.734 390.802, 147.658 385 C 162.161 363.559, 158.920 338.416, 138.976 317.633 L 131.427 309.767 123.729 317.950" stroke="none" fill="#feda9b" fill-rule="evenodd"/><path d="M 333.497 1.110 C 326.199 4.663, 308.119 45.568, 302.496 71.250 C 301.563 75.513, 300.621 79, 300.402 79 C 300.184 79, 297.192 76.926, 293.753 74.390 C 280.783 64.828, 262.421 57.341, 246.081 54.952 C 230.960 52.741, 206.483 54.883, 195 59.422 C 193.953 59.836, 192.670 58.535, 190.749 55.109 C 182.693 40.739, 169.105 27.578, 155.500 20.967 C 143.678 15.222, 135.930 13.697, 121.500 14.272 C 111.272 14.680, 108.263 15.209, 101.122 17.853 C 87.489 22.899, 76.832 29.676, 65.855 40.278 C 59.777 46.149, 59.088 49.329, 62.351 56.455 C 65.573 63.493, 72.822 74.690, 77.530 79.901 C 80.822 83.545, 81.017 84.048, 79.357 84.612 C 73.109 86.738, 60.695 93.554, 56 97.436 C 43.814 107.511, 33.551 124.369, 28.392 142.786 C 25.485 153.161, 25.696 157.481, 29.265 160.688 C 32.166 163.294, 41.668 168.610, 46.618 170.396 C 48.753 171.166, 51.760 172.290, 53.300 172.893 L 56.100 173.989 50.998 180.244 C 41.209 192.246, 35.546 207.820, 34.353 226.022 C 33.719 235.698, 35.129 249.994, 37.156 254.442 C 38.311 256.978, 42.908 259.993, 45.654 260.015 C 49.824 260.050, 50.415 261.589, 47.651 265.213 C 44.037 269.952, 38.572 282.202, 36.594 290 C 34.236 299.295, 33.530 313.936, 34.930 324.500 C 36.985 340.004, 39.086 341.318, 62 341.427 C 70.525 341.467, 79.677 341.105, 82.338 340.623 L 87.176 339.747 86.380 345.623 C 82.499 374.292, 94.517 400.122, 121.342 420.763 C 131.716 428.746, 136.741 427.103, 153.684 410.193 C 172.040 391.872, 180.409 367.957, 176.629 344.624 L 175.840 339.749 180.670 340.624 C 183.326 341.106, 192.475 341.467, 201 341.427 C 223.295 341.321, 225.859 339.881, 227.912 326.308 C 231.089 305.305, 227.372 284.812, 217.426 268.500 C 212.805 260.921, 212.801 260.938, 219.275 259.546 C 225.626 258.180, 227.758 253.052, 228.678 236.925 C 229.626 220.306, 226.248 203.295, 219.659 191.505 L 217.279 187.248 223.770 186.583 C 237.047 185.222, 239.639 182.395, 240.648 168.171 L 241.280 159.276 251.390 158.606 C 270.592 157.334, 273.405 155.657, 275.158 144.441 C 276.893 133.340, 275.711 114.992, 272.651 105.500 C 269.976 97.206, 264.650 87.374, 260.433 82.945 C 257.072 79.416, 257.375 78.868, 261.821 80.437 C 285.857 88.917, 308.980 114.364, 315.491 139.500 C 318.526 151.216, 318.822 163.190, 318.257 251.272 L 317.688 340.044 313.764 332.772 C 304.377 315.377, 295.718 303.588, 282.099 289.664 C 268.131 275.384, 265.036 273.851, 258.371 277.915 C 255.928 279.405, 254.543 281.650, 252.049 288.162 C 233.161 337.469, 236.937 398.600, 262.018 449.596 C 268.097 461.955, 278.021 477.664, 285.064 486.076 C 287.229 488.662, 289 491.053, 289 491.389 C 289 491.725, 252.611 492, 208.136 492 L 127.273 492 124.700 494.573 C 120.091 499.181, 120.264 505.373, 125.127 509.904 L 127.377 512 291.552 512 L 455.727 512 458.300 509.427 C 462.909 504.819, 462.736 498.627, 457.873 494.096 C 455.660 492.035, 454.890 491.999, 411.561 491.967 C 369.764 491.935, 367.609 491.845, 369.620 490.217 C 370.786 489.273, 375.511 485.513, 380.120 481.862 C 398.422 467.365, 422.004 442.584, 424.553 435.168 C 426.186 430.418, 424.595 426.252, 420.159 423.661 C 414.144 420.148, 411.297 421.661, 400.166 434.291 C 389.256 446.671, 378.107 457.536, 367.474 466.151 C 359.915 472.276, 341.281 485, 339.870 485 C 337.345 485, 339.852 455.881, 344.040 436.549 C 358.351 370.496, 402.544 305.552, 456.187 271.744 C 461.210 268.578, 465.420 266.103, 465.541 266.244 C 466.207 267.018, 463.927 294.908, 462.537 303 C 460.162 316.813, 455.648 334.094, 451.034 347.027 C 448.815 353.247, 447 359.370, 447 360.633 C 447 361.897, 448.397 364.521, 450.104 366.465 C 455.757 372.905, 463.630 370.590, 467.505 361.348 C 470.926 353.188, 477.064 333.265, 479.493 322.436 C 484.072 302.020, 485.296 290.838, 485.401 268.457 C 485.488 249.994, 485.285 247.087, 483.750 244.742 C 481.493 241.296, 478.370 239.662, 474.329 239.814 C 470.980 239.940, 458.451 246.244, 446.750 253.691 C 443.038 256.054, 440.010 257.652, 440.022 257.243 C 440.034 256.835, 440.948 252.450, 442.054 247.500 C 444.807 235.177, 448.608 210.137, 450.066 194.719 C 451.827 176.097, 450.734 131.477, 448.101 114.500 C 443.246 83.186, 440.561 77, 431.827 77 C 427.759 77, 427.089 77.432, 420.591 84.250 C 410.725 94.603, 399.331 109.111, 389.771 123.495 L 381.500 135.939 380.847 119.220 C 379.357 81.037, 371.493 50.225, 355.164 18.591 C 347.263 3.286, 344.402 -0.029, 339.173 0.068 C 337.153 0.105, 334.599 0.574, 333.497 1.110 M 334.973 37.709 C 328.394 52.195, 322.985 70.322, 319.505 89.547 L 317.867 98.594 322.408 105.959 C 327.758 114.638, 331.972 124.428, 335.121 135.500 C 337.283 143.103, 337.424 145.660, 337.948 187 L 338.500 230.500 342.128 222.962 C 347.211 212.401, 353.499 192.508, 356.377 177.885 C 362.867 144.901, 362.341 107.503, 354.943 76 C 351.347 60.687, 341.383 32.972, 338.927 31.455 C 338.449 31.159, 336.669 33.973, 334.973 37.709 M 112.656 35.581 C 105.282 37.367, 92.256 44.099, 86.967 48.858 L 82.918 52.500 86.957 58.627 C 95.631 71.785, 109.377 81.880, 122.890 85.016 C 137.407 88.385, 157.748 82.344, 171.303 70.640 L 174.939 67.500 170.293 60.695 C 155.976 39.721, 134.395 30.318, 112.656 35.581 M 190.543 83.511 C 181.530 88.050, 181.068 88.612, 185.675 89.423 C 197.016 91.421, 207.885 96.354, 216.490 103.409 C 226.070 111.264, 230.837 117.748, 235.612 129.425 L 238.915 137.500 247.458 137.789 L 256 138.078 255.983 130.789 C 255.908 99.516, 236.894 79.993, 206.522 80.003 C 198.202 80.006, 196.958 80.279, 190.543 83.511 M 88.500 103.405 C 76.291 106.421, 66.785 113.109, 59.049 124.124 C 54.827 130.136, 48 144.793, 48 147.845 C 48 149.024, 56.734 152.772, 64.997 155.139 C 73.933 157.699, 87.788 157.653, 95.386 155.039 C 112.560 149.130, 124.433 136.588, 131.045 117.369 C 132.120 114.244, 133 111.504, 133 111.281 C 133 111.057, 130.167 109.590, 126.704 108.020 C 114.741 102.596, 99.319 100.733, 88.500 103.405 M 162.607 109.582 C 161.568 112.289, 161.937 120.497, 163.455 128.431 C 165.282 137.978, 170.766 148.608, 176.675 154.054 C 185.569 162.253, 201.619 167.577, 215.120 166.807 L 220.500 166.500 220.807 160 C 222.023 134.216, 207.509 114.574, 183.500 109.511 C 173.799 107.465, 163.406 107.500, 162.607 109.582 M 416.993 120.164 C 379.040 170.796, 353.720 236.559, 345.048 307.028 C 343.156 322.409, 341.992 349.257, 342.654 362.289 L 343.303 375.078 349.729 362.789 C 363.848 335.788, 379.682 313.728, 400.167 292.516 L 412.990 279.238 416.490 266.465 C 430.617 214.920, 434.655 160.623, 427.716 115.500 L 426.486 107.500 416.993 120.164 M 144.711 141.658 C 144.362 142.222, 143.678 145.230, 143.190 148.342 L 142.303 154 146.677 154 L 151.051 154 149.419 150.844 C 148.522 149.108, 147.238 146.101, 146.566 144.161 C 145.894 142.220, 145.060 141.095, 144.711 141.658 M 100.226 175.084 C 82.781 177.758, 68.936 187.234, 61.199 201.796 C 56.128 211.341, 54.607 219.806, 54.921 236.750 L 55 241 64.840 241 C 76.240 241, 87.428 238.524, 95.244 234.272 C 106.590 228.098, 115.911 215.500, 119.491 201.500 C 120.921 195.904, 121.846 176.513, 120.735 175.402 C 119.702 174.369, 106.254 174.161, 100.226 175.084 M 144.750 174.716 L 142 175.133 142 185.337 C 142 202.551, 146.691 215.454, 156.552 225.365 C 167.181 236.048, 180.324 241, 198.045 241 L 207.770 241 208.445 235.593 C 209.203 229.527, 207.643 216.074, 205.467 209.905 C 202.666 201.966, 197.676 193.984, 192.391 188.985 C 181.222 178.422, 160.754 172.292, 144.750 174.716 M 95.706 256.472 C 87.754 258.211, 76.371 264.040, 71.210 269.015 C 65.435 274.582, 60.495 282.234, 57.984 289.500 C 55.610 296.372, 54.031 310.493, 54.906 317.046 L 55.500 321.500 62.289 321.797 C 71.827 322.213, 84.576 319.782, 92.380 316.057 C 104.695 310.180, 115.240 297.643, 118.925 284.500 C 120.837 277.681, 122.015 265.979, 121.355 260.364 L 120.725 255 111.112 255.102 C 105.826 255.159, 98.893 255.775, 95.706 256.472 M 142 264.951 C 142 277.113, 143.238 283.344, 147.503 292.653 C 155.588 310.299, 172.426 320.492, 195.362 321.626 C 201.517 321.931, 206.089 321.724, 207 321.100 C 208.190 320.285, 208.464 317.950, 208.324 309.786 C 207.935 286.975, 198.231 270.167, 180.348 261.328 C 171.345 256.878, 163.031 255.080, 151.250 255.035 L 142 255 142 264.951 M 266.552 309.238 C 254.698 350.523, 260.134 400.313, 281.055 442.090 C 287.009 453.979, 298.037 470.559, 305.263 478.486 L 310.721 484.473 312.294 478.986 C 317.783 459.852, 319.627 428.681, 316.535 407.289 C 311.195 370.339, 295.554 334.750, 274.104 310.738 L 268.063 303.975 266.552 309.238 M 127.746 313.058 C 122.919 317.037, 114.831 327.367, 111.742 333.500 C 104.045 348.779, 104.100 364.350, 111.905 379.812 C 115.439 386.812, 122.447 395.602, 128.004 400.003 L 132.084 403.234 139.343 395.760 C 150.872 383.889, 157 370.264, 157 356.500 C 157 343.529, 151.144 329.812, 140.777 318.498 C 132.704 309.687, 132.127 309.447, 127.746 313.058 M 432.400 390.400 C 428.297 394.503, 427.917 398.796, 431.231 403.632 C 434.735 408.746, 440.114 409.458, 444.889 405.440 C 450.721 400.533, 449.875 391.099, 443.360 388.377 C 438.336 386.278, 436.111 386.689, 432.400 390.400 M 86.923 494.923 C 80.548 501.299, 84.886 512, 93.846 512 C 96.979 512, 98.513 511.333, 100.923 508.923 C 105.215 504.631, 105.215 499.369, 100.923 495.077 C 96.671 490.825, 91.082 490.764, 86.923 494.923" stroke="none" fill="#050504" fill-rule="evenodd"/><path d="M 335.227 38.196 C 327.811 55.219, 323.085 70.920, 320.096 88.465 L 318.326 98.854 322.347 105.177 C 327.757 113.684, 332.609 125.132, 335.763 136.830 C 338.334 146.363, 338.376 147.079, 338.774 187.500 L 339.178 228.500 341.231 224.519 C 344.367 218.440, 350.674 200.166, 353.399 189.262 C 363.016 150.782, 362.893 108.226, 353.057 70.445 C 350.022 58.788, 344.229 42.420, 340.582 35.196 L 338.409 30.891 335.227 38.196 M 421.812 114.250 C 382.895 162.487, 354.585 233.831, 345.414 306.780 C 343.637 320.915, 342.235 372.007, 343.624 371.988 C 344.106 371.981, 346.750 367.619, 349.500 362.295 C 355.942 349.821, 368.189 330.274, 376.147 319.761 C 384.103 309.251, 400.136 290.970, 407.022 284.555 C 412.882 279.097, 413.998 276.448, 418.633 257 C 428.332 216.302, 432.276 177.831, 430.137 144.786 C 428.926 126.077, 426.986 110, 425.940 110 C 425.556 110, 423.698 111.912, 421.812 114.250 M 306.286 138.604 C 306.905 160.334, 308.574 173.309, 313.042 191.101 C 317.803 210.064, 317.869 209.921, 317.923 180.500 C 317.965 157.929, 317.668 152.021, 316.112 144.482 C 314.240 135.411, 308.717 120.561, 306.767 119.356 C 306.043 118.908, 305.894 124.853, 306.286 138.604" stroke="none" fill="#d8e07a" fill-rule="evenodd"/></svg>